# xmcd
#
# Track frame offsets: 
#        150
#        13972
#        41967
#        58452
#        81030
#        105155
#        122387
#        144452
#        156625
#        175155
#        208197
#        222345
#        236165
#        256502
#        286227
#        314110
#
# Disc length: 4444 seconds
#
# Revision: 3
# Processed by: cddbd v1.5.2PL0 Copyright (c) Steve Scherf et al.
# Submitted via: ExactAudioCopyFreeDBPlugin 1.0
#
DISCID=f1115a10
DTITLE=Stevie Ray Vaughan and Double Trouble - Martin Scorsese Presents 
DTITLE=the Blues
DYEAR=2003
DGENRE=Blues
TTITLE0=Slide Thing
TTITLE1=All Your Love I Miss Loving
TTITLE2=Pride And Joy
TTITLE3=Dirty Pool
TTITLE4=Texas Flood
TTITLE5=Hug You, Squeeze You
TTITLE6=The Things (That) I Used To Do
TTITLE7=Honey Bee
TTITLE8=Give Me Back My Wig
TTITLE9=The Sky Is Crying
TTITLE10=Look At Little Sister
TTITLE11=Empty Arms
TTITLE12=Come On (Part III)
TTITLE13=Ain't Gone 'N' Give Up On Love
TTITLE14=Mary Had A Little Lamb
TTITLE15=Leave My Girl Alone
EXTD=
EXTT0=
EXTT1=
EXTT2=
EXTT3=
EXTT4=
EXTT5=
EXTT6=
EXTT7=
EXTT8=
EXTT9=
EXTT10=
EXTT11=
EXTT12=
EXTT13=
EXTT14=
EXTT15=
PLAYORDER=
